<?xml version="1.0" standalone="no"?>
<!DOCTYPE svg PUBLIC "-//W3C//DTD SVG 20010904//EN"
 "http://www.w3.org/TR/2001/REC-SVG-20010904/DTD/svg10.dtd">
<svg version="1.0" xmlns="http://www.w3.org/2000/svg"
 width="512.000000pt" height="512.000000pt" viewBox="0 0 512.000000 512.000000"
 preserveAspectRatio="xMidYMid meet">

<g transform="translate(0.000000,512.000000) scale(0.100000,-0.100000)"
fill="#000000" stroke="none">
<path d="M3465 5085 c-33 -14 -61 -25 -62 -25 -1 0 -8 -10 -15 -22 -19 -37
-27 -200 -16 -373 11 -198 0 -286 -38 -304 -14 -6 -52 -11 -85 -11 -47 0 -67
-5 -98 -25 -35 -24 -41 -25 -82 -14 -42 11 -48 10 -104 -19 -39 -21 -74 -32
-100 -32 -27 0 -68 -13 -120 -39 -44 -21 -138 -55 -210 -76 -288 -83 -708
-241 -913 -344 -146 -73 -429 -235 -532 -304 -226 -151 -422 -358 -549 -581
-114 -201 -187 -509 -125 -533 9 -3 40 19 82 58 100 95 233 206 354 295 104
77 356 234 376 234 16 0 80 -92 105 -151 36 -81 54 -158 81 -335 38 -241 77
-332 193 -446 143 -140 261 -178 648 -208 232 -17 348 -63 461 -182 38 -40 93
-96 121 -124 l53 -52 -15 -36 c-46 -110 -56 -190 -65 -536 l-8 -335 -31 -80
c-18 -44 -48 -113 -68 -153 -72 -143 -55 -222 62 -282 61 -31 78 -35 163 -39
108 -4 201 13 231 41 24 21 29 97 11 158 -23 77 -30 264 -15 417 16 165 25
197 115 396 64 144 90 247 90 367 0 78 57 192 122 242 44 35 135 137 157 175
14 26 19 15 47 -83 36 -134 35 -145 -36 -221 -33 -35 -69 -81 -80 -103 -15
-29 -27 -39 -47 -42 -27 -3 -28 -5 -31 -73 -5 -108 14 -210 71 -377 50 -149
51 -156 52 -268 0 -98 -4 -127 -27 -200 -39 -121 -44 -167 -20 -210 35 -65 59
-71 285 -81 111 -5 285 -15 387 -21 102 -6 217 -9 255 -6 184 13 224 124 68
183 -179 67 -458 228 -469 271 -3 13 -4 117 -1 231 3 172 9 232 32 351 29 151
28 192 -5 192 -27 0 -26 22 6 117 14 44 28 113 31 158 4 58 13 96 33 140 51
110 55 135 54 365 0 174 -4 235 -21 320 -11 58 -19 107 -17 109 2 2 20 -3 41
-11 21 -9 64 -19 97 -23 l58 -7 47 51 c26 28 64 85 84 126 21 41 61 110 91
153 71 105 98 178 99 267 1 78 -20 136 -68 193 -27 32 -29 40 -29 125 -1 75
-5 101 -24 139 -21 43 -22 50 -11 111 10 56 10 76 -5 134 -20 80 -48 127 -111
179 -26 22 -71 60 -101 87 -30 26 -63 47 -75 47 -11 0 -33 10 -49 21 -18 14
-38 20 -53 17 -16 -3 -28 1 -36 13 -21 34 -112 79 -161 79 -25 0 -50 4 -56 8
-23 14 -26 195 -9 401 26 295 13 365 -77 413 -38 20 -60 23 -188 26 -136 2
-149 1 -205 -23z m323 -60 c80 -24 87 -42 86 -200 -2 -146 -25 -299 -55 -362
-30 -61 -69 -76 -185 -71 -128 5 -145 23 -180 173 -14 59 -19 120 -19 237 0
179 9 203 81 225 57 17 211 16 272 -2z m-150 -663 l117 -4 60 40 c35 24 61 36
62 29 1 -7 3 -53 5 -103 l4 -92 -53 -26 c-64 -31 -77 -32 -173 -6 -156 42
-186 57 -224 114 -32 47 -34 55 -29 104 l6 54 54 -54 54 -53 117 -3z m-250
-88 c96 -45 260 -93 342 -101 62 -5 69 -3 147 36 46 22 97 41 114 41 46 0 96
-28 137 -76 28 -35 42 -44 64 -42 17 1 36 -6 51 -20 18 -17 31 -21 51 -16 27
6 60 -11 50 -27 -11 -18 -100 -10 -126 11 -47 36 -191 100 -227 100 -20 0 -80
-10 -134 -22 -98 -22 -99 -22 -180 -4 -183 41 -240 48 -278 37 -53 -16 -176
-13 -239 5 -30 9 -83 23 -117 32 -35 10 -63 20 -63 23 0 10 50 29 79 29 15 0
48 -13 74 -30 50 -31 54 -31 35 -1 -9 15 -9 23 2 36 37 44 108 41 218 -11z
m-287 -91 c36 -15 80 -18 254 -19 172 -1 227 -5 303 -22 99 -22 111 -21 270
13 83 18 91 15 213 -56 106 -62 153 -113 178 -194 12 -37 21 -94 21 -126 0
-53 -3 -61 -24 -70 -20 -10 -37 -6 -98 19 -101 41 -132 50 -214 62 -91 12
-256 -2 -410 -35 -190 -41 -221 -35 -374 69 -45 31 -86 53 -91 50 -5 -3 -18
-37 -30 -77 -50 -176 -88 -244 -158 -288 -58 -37 -96 -37 -174 2 l-62 32 45
-49 c64 -69 102 -127 147 -224 57 -126 98 -199 147 -261 41 -52 46 -56 107
-67 110 -20 234 -125 207 -176 -17 -31 -114 -123 -149 -142 -44 -22 -72 -12
-139 54 -67 67 -80 88 -80 136 0 32 -6 39 -62 79 -35 24 -142 90 -238 147
-209 123 -284 190 -319 285 -37 98 -34 139 18 218 27 42 56 106 77 174 37 117
59 148 115 164 48 15 80 6 124 -32 19 -17 35 -27 35 -22 0 14 -41 67 -74 95
-25 21 -28 29 -22 60 15 82 95 160 201 197 77 26 195 28 256 4z m-501 -109 c0
-3 -5 -14 -11 -25 -5 -11 -13 -38 -17 -61 -7 -38 -10 -42 -60 -60 -67 -25
-101 -70 -138 -181 -42 -129 -41 -128 -151 -176 -150 -67 -844 -412 -967 -481
-277 -155 -532 -338 -703 -504 -46 -44 -83 -73 -83 -65 0 45 58 219 104 315
141 288 368 505 776 739 314 181 648 323 1085 460 140 44 165 50 165 39z
m1807 -76 c109 -51 157 -182 122 -335 -11 -45 -10 -52 17 -103 23 -44 29 -70
32 -130 3 -83 1 -87 -66 -139 -24 -18 -41 -35 -38 -38 2 -2 25 3 50 11 41 14
51 14 81 2 51 -22 68 -64 63 -156 -5 -85 -42 -180 -99 -251 -16 -21 -41 -65
-54 -98 -24 -62 -69 -134 -103 -164 -36 -33 -84 -33 -156 1 -71 33 -77 43 -92
159 -6 50 -5 54 28 87 21 21 48 36 69 39 135 20 134 20 132 50 -1 16 -16 51
-34 78 -52 81 -53 176 -1 203 20 12 22 15 9 16 -35 0 -117 42 -117 59 0 9 16
54 35 101 27 65 35 99 35 147 l0 63 40 20 c47 24 54 45 48 143 -5 81 -33 145
-92 216 -20 24 -36 44 -36 46 0 9 91 -10 127 -27z m-1193 -227 c131 -100 213
-117 377 -80 89 20 131 24 284 24 170 0 185 -2 260 -28 44 -15 87 -31 95 -37
25 -16 17 -123 -15 -205 -84 -217 -96 -262 -103 -383 l-7 -117 -65 -6 c-122
-12 -303 -9 -367 6 -71 17 -228 82 -282 118 -35 23 -39 30 -49 95 -17 103 -16
106 28 136 22 14 40 30 40 35 0 5 -24 9 -53 9 -74 -1 -119 23 -210 112 l-78
76 30 63 c20 44 31 85 36 141 4 45 12 80 18 80 5 0 33 -17 61 -39z m-180 -388
c34 -32 89 -79 123 -105 55 -42 62 -51 73 -100 16 -69 23 -190 13 -204 -6 -9
-24 -9 -67 -1 -54 10 -61 14 -95 61 -61 84 -78 117 -126 243 -25 66 -45 123
-45 126 0 6 49 36 59 37 2 0 32 -26 65 -57z m-740 -119 c34 -64 95 -130 157
-170 24 -15 124 -70 224 -122 235 -123 265 -144 265 -183 0 -34 20 -79 46
-100 9 -7 25 -32 35 -55 14 -34 26 -45 63 -59 26 -10 46 -24 46 -32 0 -35 -37
-87 -118 -165 -163 -157 -348 -292 -519 -376 -164 -82 -185 -87 -373 -86 -150
0 -172 3 -245 27 -183 60 -288 164 -350 348 l-25 73 49 101 c105 214 250 403
516 673 99 100 185 182 190 182 6 0 23 -25 39 -56z m1951 -66 c23 -11 25 -16
20 -50 -10 -55 1 -89 46 -149 21 -29 39 -56 39 -61 0 -4 -29 -8 -65 -8 -35 0
-76 -5 -90 -12 -14 -6 -27 -9 -30 -7 -10 11 26 263 42 292 6 9 7 9 38 -5z
m-631 -285 c54 -13 122 -17 279 -17 l207 -1 0 -53 c0 -29 16 -130 35 -225 89
-444 88 -720 -4 -868 -25 -41 -29 -58 -33 -150 -5 -96 -30 -206 -57 -248 -15
-22 -207 -36 -320 -22 -52 6 -97 14 -100 17 -3 3 6 26 19 51 26 49 76 87 127
98 30 6 31 8 27 43 -13 100 -29 166 -65 260 l-38 103 23 72 c14 40 34 135 46
212 11 77 28 175 36 218 35 177 -10 70 -92 -221 -30 -108 -68 -224 -85 -258
-38 -80 -123 -188 -188 -239 -36 -28 -54 -51 -61 -75 -5 -19 -22 -54 -37 -76
-80 -118 -93 -139 -93 -148 0 -5 8 -2 18 7 10 10 22 17 27 17 13 0 -4 -148
-26 -228 -11 -41 -42 -125 -69 -187 -64 -150 -69 -170 -79 -304 -6 -77 -13
-116 -22 -123 -17 -11 -118 -2 -179 16 -44 13 -45 14 -42 52 27 410 35 503 58
614 30 150 59 215 151 339 l69 93 -19 72 c-27 98 -28 349 -3 491 15 83 52 240
72 306 2 9 29 33 58 53 78 54 166 149 166 180 0 15 -16 43 -40 71 -39 45 -43
62 -25 122 3 8 32 2 96 -18 50 -16 124 -37 163 -46z m58 -1638 c71 -6 318 7
386 21 l33 7 -6 -39 c-4 -21 -12 -44 -19 -50 -29 -29 -326 -55 -449 -40 -68 9
-87 25 -87 75 0 47 4 51 40 41 16 -4 61 -11 102 -15z m383 -187 c-4 -18 -13
-36 -19 -40 -22 -14 -125 -23 -278 -23 -168 0 -178 3 -192 52 l-7 22 163 -5
c120 -4 183 -2 238 9 108 21 103 22 95 -15z m-25 -346 l0 -228 173 -99 c175
-102 247 -157 247 -192 0 -10 -7 -29 -16 -42 -19 -26 -9 -26 -279 3 -82 8
-193 19 -245 23 l-95 8 -3 71 -3 72 -64 12 c-92 17 -100 25 -80 79 30 87 16
298 -29 434 l-22 67 140 1 c78 0 164 4 191 9 28 4 58 8 68 9 16 1 17 -16 17
-227z m-982 -218 c17 -5 42 -65 42 -100 0 -19 -4 -25 -15 -20 -23 8 -19 -20
21 -150 42 -139 39 -157 -27 -174 -46 -13 -174 -6 -243 12 -22 5 -55 25 -73
43 -60 60 -40 135 60 216 75 62 76 62 44 57 -15 -3 -30 -1 -33 4 -11 17 6 57
38 93 l31 36 71 -6 c39 -4 77 -8 84 -11z"/>
</g>
</svg>
